<svg width="25" height="25" viewBox="0 0 25 25" fill="none" xmlns="http://www.w3.org/2000/svg">
<g clip-path="url(#clip0_86_346)">
<path d="M4.5 20.5H8.5L19 10C19.2626 9.73735 19.471 9.42555 19.6131 9.08239C19.7553 8.73923 19.8284 8.37143 19.8284 8C19.8284 7.62856 19.7553 7.26077 19.6131 6.9176C19.471 6.57444 19.2626 6.26264 19 6C18.7374 5.73735 18.4256 5.52901 18.0824 5.38687C17.7392 5.24473 17.3714 5.17157 17 5.17157C16.6286 5.17157 16.2608 5.24473 15.9176 5.38687C15.5744 5.52901 15.2626 5.73735 15 6L4.5 16.5V20.5Z" stroke="white" stroke-width="2" stroke-linecap="round" stroke-linejoin="round"/>
<path d="M14 7L18 11" stroke="white" stroke-width="2" stroke-linecap="round" stroke-linejoin="round"/>
</g>
<defs>
<clipPath id="clip0_86_346">
<rect width="24" height="24" fill="white" transform="translate(0.5 0.5)"/>
</clipPath>
</defs>
</svg>
